<?xml version="1.0" encoding="UTF-8"?>
<svg version="1.1" xmlns="http://www.w3.org/2000/svg" width="332" height="82">
<path d="M0 0 C109.56 0 219.12 0 332 0 C332 27.06 332 54.12 332 82 C222.44 82 112.88 82 0 82 C0 54.94 0 27.88 0 0 Z " fill="#FBF9F8" transform="translate(0,0)"/>
<path d="M0 0 C109.56 0 219.12 0 332 0 C332 13.2 332 26.4 332 40 C317.39539379 40.2266226 302.79189594 40.41045109 288.18591976 40.51812172 C281.4025171 40.56946679 274.6202924 40.63933246 267.83764648 40.75439453 C261.28244615 40.86554419 254.72800557 40.92297256 248.17190742 40.94877243 C245.68050535 40.96713961 243.18916417 41.00300641 240.69828606 41.05730057 C224.96184647 41.38642644 215.09459827 40.35253863 203 30 C198.74185796 27.55680233 195.88693863 27.45700682 191 28 C190.525625 28.804375 190.05125 29.60875 189.5625 30.4375 C188 33 188 33 185.86328125 33.51953125 C184.23222618 33.67060229 182.59729519 33.78523582 180.9609375 33.859375 C178.99659368 33.78516747 178.99659368 33.78516747 178 35 C177.66178301 38.12850712 177.68597 39.5508076 179.515625 42.16796875 C180.00546875 42.77253906 180.4953125 43.37710938 181 44 C178.41638482 44.05407567 175.83390745 44.093707 173.25 44.125 C172.52039063 44.14175781 171.79078125 44.15851562 171.0390625 44.17578125 C167.1955376 44.21072239 164.25393228 44.17499684 161 42 C161.061875 40.88625 161.12375 39.7725 161.1875 38.625 C161.125625 37.42875 161.06375 36.2325 161 35 C157.71536341 32.81024227 154.79303725 32.00193437 151 31 C151 30.34 151 29.68 151 29 C148.42685733 27.25026298 146.96314253 27.0007227 143.8125 27.0625 C137.0845883 28.71690452 132.05742494 32.0198098 126.95753479 36.63002014 C121.48027001 40.90630165 116.81720028 40.95221284 110.05444336 40.79467773 C108.89245422 40.79569992 107.73046509 40.79672211 106.53326416 40.79777527 C102.7178383 40.79292418 98.9048481 40.73859282 95.08984375 40.68359375 C92.43465629 40.67052866 89.77960122 40.66022437 87.12440491 40.65357971 C80.86628847 40.63189789 74.6090369 40.57455919 68.35129982 40.50413328 C61.22196614 40.42565491 54.09258925 40.3873448 46.96293056 40.35226524 C32.3081124 40.27926762 17.6542283 40.15099241 3 40 C3 53.86 3 67.72 3 82 C2.01 82 1.02 82 0 82 C0 54.94 0 27.88 0 0 Z " fill="#FDFBFB" transform="translate(0,0)"/>
<path d="M0 0 C5.43402223 2.57287259 10.43829466 5.64778636 14.98548889 9.58500671 C19.7816004 12.99249825 24.55103689 12.70673217 30.25952148 12.65942383 C31.92891533 12.67514938 31.92891533 12.67514938 33.6320343 12.69119263 C37.29533929 12.71989776 40.95769664 12.71365588 44.62109375 12.70703125 C47.1670093 12.72014891 49.71291444 12.73545333 52.25880432 12.75285339 C58.26520884 12.78863857 64.27127133 12.80243744 70.27774912 12.8054778 C77.11948599 12.81017581 83.9609971 12.84312277 90.80263412 12.87837565 C104.86840255 12.9502229 118.93406585 12.98581098 133 13 C133 16.63 133 20.26 133 24 C131.55118439 24.00586624 130.10236877 24.01173248 128.60964966 24.01777649 C114.98301471 24.07488846 101.35652646 24.14741036 87.73005867 24.23571491 C80.72386298 24.28071975 73.71771866 24.3201234 66.71142578 24.34643555 C59.95510898 24.37182452 53.19905079 24.41269714 46.44286728 24.46318626 C43.86000264 24.47992378 41.27709854 24.49139496 38.69418716 24.49761391 C35.08770883 24.50718024 31.48182257 24.53514989 27.87548828 24.56762695 C26.79799316 24.56619186 25.72049805 24.56475677 24.61035156 24.5632782 C23.63156036 24.57581635 22.65276917 24.58835449 21.64431763 24.60127258 C20.79073732 24.60588155 19.93715702 24.61049051 19.05771065 24.61523914 C18.37866613 24.74221023 17.69962162 24.86918131 17 25 C16.34 25.99 15.68 26.98 15 28 C13.3359375 28.9921875 13.3359375 28.9921875 11.375 29.875 C8.37527268 31.27993558 5.68043519 32.83214228 2.9375 34.6875 C-0.68734607 36.98062463 -3.61653714 38.08429736 -8 38 C-10.5 36.5 -10.5 36.5 -12 34 C-12.38306644 30.7439353 -12.43820485 29.82172511 -11 27 C-7.89825955 23.70407275 -4.53062065 20.82577805 -1 18 C-1.55429688 17.61328125 -2.10859375 17.2265625 -2.6796875 16.828125 C-3.40414062 16.30734375 -4.12859375 15.7865625 -4.875 15.25 C-5.59429687 14.73953125 -6.31359375 14.2290625 -7.0546875 13.703125 C-9.86682255 11.24109512 -10.86345304 9.11968503 -11.3125 5.4375 C-11 3 -11 3 -10 1.1875 C-6.62927266 -0.81386936 -3.71017606 -0.83567863 0 0 Z " fill="#F7F6F7" transform="translate(199,27)"/>
<path d="M0 0 C0.99 0.495 0.99 0.495 2 1 C1.67 1.99 1.34 2.98 1 4 C0.13375 4.185625 0.13375 4.185625 -0.75 4.375 C-5.10036003 5.58343334 -7.58642529 9.37963794 -10 13 C-9.34128906 13.21785156 -8.68257813 13.43570313 -8.00390625 13.66015625 C-3.96919689 15.45977304 -0.54276608 17.90290872 3.0625 20.4375 C3.76955078 20.92798828 4.47660156 21.41847656 5.20507812 21.92382812 C8.51407194 24.22614213 11.79955368 26.54770996 15 29 C10.1542713 28.70468585 7.78717965 27.20732192 4.16817474 24.0649004 C-7.33005676 14.43113892 -19.83804382 15.49863876 -34.15625 15.70703125 C-36.75655902 15.70510615 -39.35686854 15.69832649 -41.95715332 15.68693542 C-48.05958976 15.67176474 -54.15994279 15.70488285 -60.26206827 15.76240796 C-67.22005058 15.82523147 -74.17760742 15.8248381 -81.13581944 15.81968272 C-95.42447309 15.81048399 -109.71187484 15.8811335 -124 16 C-124 12.37 -124 8.74 -124 5 C-121.78039299 4.99453156 -121.78039299 4.99453156 -119.51594543 4.98895264 C-105.58118325 4.9520359 -91.64662399 4.8945369 -77.7120409 4.81609726 C-70.54785095 4.77629758 -63.38377099 4.7439099 -56.21948242 4.72900391 C-49.97465027 4.71599209 -43.73006004 4.68903983 -37.48536414 4.64538693 C-34.17913896 4.6227609 -30.87327779 4.60916918 -27.5669651 4.60811615 C-23.87475731 4.60575717 -20.18349965 4.57876136 -16.49145508 4.54589844 C-15.39669357 4.5509288 -14.30193207 4.55595917 -13.17399597 4.56114197 C-7.15053692 4.5020218 -7.15053692 4.5020218 -1.78178406 1.96588135 C-1.19379532 1.3171405 -0.60580658 0.66839966 0 0 Z " fill="#FAF4F1" transform="translate(127,35)"/>
<path d="M0 0 C3.68253968 0.63492063 3.68253968 0.63492063 5.25 2.4375 C7.65004465 4.580397 10.04976646 4.86447948 13.16015625 5.47265625 C15 6 15 6 17 8 C17.125 11.625 17.125 11.625 17 15 C20.61867559 16.2062252 23.92506251 16.10816918 27.6875 16.0625 C28.38939453 16.05798828 29.09128906 16.05347656 29.81445312 16.04882812 C31.54300538 16.03706927 33.27151365 16.01913454 35 16 C34.50886719 15.56042969 34.01773438 15.12085938 33.51171875 14.66796875 C32 13 32 13 31.8125 10.3125 C31.9053125 9.1678125 31.9053125 9.1678125 32 8 C32.66 7.67 33.32 7.34 34 7 C34.20625 8.093125 34.4125 9.18625 34.625 10.3125 C35.65663938 14.2285659 35.65663938 14.2285659 39.125 15.9375 C40.07375 16.288125 41.0225 16.63875 42 17 C41.505 15.515 41.505 15.515 41 14 C42.32 14.33 43.64 14.66 45 15 C44.5152439 21.54420732 44.5152439 21.54420732 42.375 23.4375 C39.20862399 24.18743116 36.24002269 24.12461626 33 24 C33 25.65 33 27.3 33 29 C34.98 29.33 36.96 29.66 39 30 C39 30.33 39 30.66 39 31 C36.125 31.125 36.125 31.125 33 31 C32.34 30.34 31.68 29.68 31 29 C31.375 25.375 31.375 25.375 32 22 C25.88530818 19.92100478 22.05857519 19.98047494 16 22 C16.1546875 23.6396875 16.1546875 23.6396875 16.3125 25.3125 C16 29 16 29 13.875 30.8125 C10.95212789 32.01977326 8.0056785 33.01988745 5 34 C4.01 34.66 3.02 35.32 2 36 C2.33 34.02 2.66 32.04 3 30 C1.69095703 30.10248047 1.69095703 30.10248047 0.35546875 30.20703125 C-3.61031096 29.96234403 -5.41677599 28.89079107 -8.6875 26.6875 C-9.61949219 26.07261719 -10.55148438 25.45773438 -11.51171875 24.82421875 C-15.44347134 21.94175649 -15.44347134 21.94175649 -17 20 C-17 19.01 -17 18.02 -17 17 C-14.98828125 15.17578125 -14.98828125 15.17578125 -12.3125 13.3125 C-11.00732422 12.37857422 -11.00732422 12.37857422 -9.67578125 11.42578125 C-6.80841471 9.89791441 -5.19322078 9.6950618 -2 10 C-3.98 12.97 -3.98 12.97 -6 16 C-0.71968511 12.7843624 -0.71968511 12.7843624 3 8 C3.50014953 5.45741537 3.50014953 5.45741537 3 3 C1.60414215 1.18523997 1.60414215 1.18523997 0 0 Z " fill="#F2EBEC" transform="translate(145,27)"/>
<path d="M0 0 C36.3 0 72.6 0 110 0 C110 2.31 110 4.62 110 7 C97.28212296 7.1393662 84.56442927 7.24580705 71.8459425 7.31087303 C65.93941859 7.34211053 60.0334193 7.38444547 54.12719727 7.45263672 C48.42130226 7.51809856 42.71591007 7.553763 37.00966835 7.56926346 C34.83884078 7.58030166 32.66803898 7.6018566 30.49742699 7.63438034 C8.64414015 7.94863299 8.64414015 7.94863299 0 1 C0 0.67 0 0.34 0 0 Z " fill="#FAF7F6" transform="translate(222,42)"/>
<path d="M0 0 C0.99 0.495 0.99 0.495 2 1 C1.67 1.99 1.34 2.98 1 4 C0.13375 4.185625 0.13375 4.185625 -0.75 4.375 C-5.10036003 5.58343334 -7.58642529 9.37963794 -10 13 C-9.34128906 13.21785156 -8.68257813 13.43570313 -8.00390625 13.66015625 C-3.96919689 15.45977304 -0.54276608 17.90290872 3.0625 20.4375 C3.76955078 20.92798828 4.47660156 21.41847656 5.20507812 21.92382812 C8.51407194 24.22614213 11.79955368 26.54770996 15 29 C10.1542713 28.70468585 7.78717965 27.20732192 4.16817474 24.0649004 C-7.33005676 14.43113892 -19.83804382 15.49863876 -34.15625 15.70703125 C-36.75655902 15.70510615 -39.35686854 15.69832649 -41.95715332 15.68693542 C-48.05958976 15.67176474 -54.15994279 15.70488285 -60.26206827 15.76240796 C-67.22005058 15.82523147 -74.17760742 15.8248381 -81.13581944 15.81968272 C-95.42444053 15.81048401 -109.7119177 15.87889214 -124 16 C-124 15.34 -124 14.68 -124 14 C-69.055 13.505 -69.055 13.505 -13 13 C-13.99 12.67 -14.98 12.34 -16 12 C-16 11.34 -16 10.68 -16 10 C-21.4126859 7.7637759 -26.28847303 7.69449058 -32.04443359 7.68115234 C-33.04017395 7.67110672 -34.03591431 7.6610611 -35.06182861 7.65071106 C-38.34069258 7.6199136 -41.619475 7.6028533 -44.8984375 7.5859375 C-47.17673441 7.56722311 -49.45502442 7.5476495 -51.73330688 7.5272522 C-57.72060062 7.47595376 -63.70791682 7.43631565 -69.6953125 7.39910889 C-75.80865018 7.35905501 -81.92189459 7.30796894 -88.03515625 7.2578125 C-100.02337196 7.16108023 -112.01164036 7.07666669 -124 7 C-124 6.34 -124 5.68 -124 5 C-123.39131482 4.99853344 -122.78262964 4.99706688 -122.15549946 4.99555588 C-107.34087848 4.95849488 -92.52646684 4.89948965 -77.7120409 4.81609726 C-70.54785095 4.77629758 -63.38377099 4.7439099 -56.21948242 4.72900391 C-49.97465027 4.71599209 -43.73006004 4.68903983 -37.48536414 4.64538693 C-34.17913896 4.6227609 -30.87327779 4.60916918 -27.5669651 4.60811615 C-23.87475731 4.60575717 -20.18349965 4.57876136 -16.49145508 4.54589844 C-15.39669357 4.5509288 -14.30193207 4.55595917 -13.17399597 4.56114197 C-7.15053692 4.5020218 -7.15053692 4.5020218 -1.78178406 1.96588135 C-1.19379532 1.3171405 -0.60580658 0.66839966 0 0 Z " fill="#D6BEC0" transform="translate(127,35)"/>
<path d="M0 0 C4.19577241 0.56904689 6.92342259 1.98473525 10.4375 4.3125 C11.34371094 4.90675781 12.24992188 5.50101563 13.18359375 6.11328125 C16 8 16 8 18.47940063 10.08380127 C22.97500945 13.05122792 27.93295926 12.57100679 33.14599609 12.54589844 C34.8151709 12.56140495 34.8151709 12.56140495 36.51806641 12.57722473 C40.186671 12.60666117 43.85472407 12.60815215 47.5234375 12.609375 C50.07078097 12.62435598 52.61811473 12.64108295 55.16543579 12.65948486 C61.17889836 12.69871631 67.1921745 12.72037181 73.20573008 12.73345876 C80.05468707 12.74934854 86.90346031 12.78777236 93.75231051 12.82805204 C107.83481174 12.9103716 121.91730844 12.96451322 136 13 C136 13.66 136 14.32 136 15 C82.54 15.495 82.54 15.495 28 16 C35.74440664 20.30244813 38.95931735 21.73811678 47.10961914 21.65942383 C48.55999573 21.67514938 48.55999573 21.67514938 50.03967285 21.69119263 C53.20516725 21.71977344 56.36955683 21.71367088 59.53515625 21.70703125 C61.74191141 21.72015651 63.94865458 21.73546327 66.15538025 21.75285339 C71.94052499 21.79261882 77.72535484 21.80288845 83.51062012 21.80688477 C89.42319235 21.81623206 95.3355808 21.85365569 101.24804688 21.88867188 C112.83202273 21.95316179 124.41586032 21.98647243 136 22 C136 22.66 136 23.32 136 24 C97.72 24 59.44 24 20 24 C20.33 23.34 20.66 22.68 21 22 C23.28515625 21.5859375 23.28515625 21.5859375 26.0625 21.375 C26.98160156 21.30023438 27.90070313 21.22546875 28.84765625 21.1484375 C29.91306641 21.07496094 29.91306641 21.07496094 31 21 C30.3915625 20.62230469 29.783125 20.24460937 29.15625 19.85546875 C23.19924176 16.11481799 17.35723133 12.2365262 11.5625 8.25 C10.87671875 7.77844482 10.1909375 7.30688965 9.484375 6.82104492 C6.27639706 4.60527811 3.09412663 2.3740102 0 0 Z " fill="#D5BFC0" transform="translate(196,27)"/>
<path d="M0 0 C0.99 0.495 0.99 0.495 2 1 C1.67 1.99 1.34 2.98 1 4 C0.13375 4.185625 0.13375 4.185625 -0.75 4.375 C-4.06600927 5.29611369 -5.66400237 7.54420762 -8 10 C-8.99 10.66 -9.98 11.32 -11 12 C-13.64 10.68 -16.28 9.36 -19 8 C-19 7.34 -19 6.68 -19 6 C-19.99 6.33 -20.98 6.66 -22 7 C-23.40882768 7.08835015 -24.82148381 7.12199079 -26.233078 7.12025452 C-27.09544571 7.12162918 -27.95781342 7.12300385 -28.84631348 7.12442017 C-29.78930298 7.12082489 -30.73229248 7.11722961 -31.70385742 7.11352539 C-33.19681084 7.11374443 -33.19681084 7.11374443 -34.71992493 7.1139679 C-38.01512825 7.11327032 -41.31027529 7.10548511 -44.60546875 7.09765625 C-46.88804595 7.09579152 -49.17062355 7.09436788 -51.45320129 7.09336853 C-57.46525169 7.08954767 -63.47727798 7.07972104 -69.48931885 7.06866455 C-75.62243321 7.05844118 -81.75555145 7.05386892 -87.88867188 7.04882812 C-99.92579185 7.03809841 -111.96289392 7.02102714 -124 7 C-124 6.34 -124 5.68 -124 5 C-123.39131482 4.99853344 -122.78262964 4.99706688 -122.15549946 4.99555588 C-107.34087848 4.95849488 -92.52646684 4.89948965 -77.7120409 4.81609726 C-70.54785095 4.77629758 -63.38377099 4.7439099 -56.21948242 4.72900391 C-49.97465027 4.71599209 -43.73006004 4.68903983 -37.48536414 4.64538693 C-34.17913896 4.6227609 -30.87327779 4.60916918 -27.5669651 4.60811615 C-23.87475731 4.60575717 -20.18349965 4.57876136 -16.49145508 4.54589844 C-15.39669357 4.5509288 -14.30193207 4.55595917 -13.17399597 4.56114197 C-7.15053692 4.5020218 -7.15053692 4.5020218 -1.78178406 1.96588135 C-1.19379532 1.3171405 -0.60580658 0.66839966 0 0 Z " fill="#E0C4C9" transform="translate(127,35)"/>
<path d="M0 0 C2.16874252 0.50603992 3.99967627 0.99983813 6 2 C5.86552948 8.32011453 3.56107424 11.20614538 -0.69921875 15.7890625 C-2.32684063 17.96942407 -2.32684063 17.96942407 -1.37109375 20.60546875 C0.32805012 23.57291945 2.56011943 25.62432681 5 28 C5 28.66 5 29.32 5 30 C5.99 30.33 6.98 30.66 8 31 C7.01 31 6.02 31 5 31 C4.87625 31.639375 4.7525 32.27875 4.625 32.9375 C4.315625 33.9584375 4.315625 33.9584375 4 35 C3.01 35.495 3.01 35.495 2 36 C2.33 34.02 2.66 32.04 3 30 C1.69095703 30.10248047 1.69095703 30.10248047 0.35546875 30.20703125 C-3.61031096 29.96234403 -5.41677599 28.89079107 -8.6875 26.6875 C-9.61949219 26.07261719 -10.55148438 25.45773438 -11.51171875 24.82421875 C-15.44347134 21.94175649 -15.44347134 21.94175649 -17 20 C-17 19.01 -17 18.02 -17 17 C-14.98828125 15.17578125 -14.98828125 15.17578125 -12.3125 13.3125 C-11.00732422 12.37857422 -11.00732422 12.37857422 -9.67578125 11.42578125 C-6.80841471 9.89791441 -5.19322078 9.6950618 -2 10 C-3.98 12.97 -3.98 12.97 -6 16 C-0.71968511 12.7843624 -0.71968511 12.7843624 3 8 C3.50014953 5.45741537 3.50014953 5.45741537 3 3 C1.60414215 1.18523997 1.60414215 1.18523997 0 0 Z " fill="#D4B5B8" transform="translate(145,27)"/>
<path d="M0 0 C1.65 0.33 3.3 0.66 5 1 C5.59732819 3.76264289 6 6.16032769 6 9 C9.61867559 10.2062252 12.92506251 10.10816918 16.6875 10.0625 C17.38939453 10.05798828 18.09128906 10.05347656 18.81445312 10.04882812 C20.54300538 10.03706927 22.27151365 10.01913454 24 10 C23.50886719 9.56042969 23.01773438 9.12085938 22.51171875 8.66796875 C21 7 21 7 20.8125 4.3125 C20.9053125 3.1678125 20.9053125 3.1678125 21 2 C21.66 1.67 22.32 1.34 23 1 C23.20625 2.093125 23.4125 3.18625 23.625 4.3125 C24.65663938 8.2285659 24.65663938 8.2285659 28.125 9.9375 C29.07375 10.288125 30.0225 10.63875 31 11 C30.505 9.515 30.505 9.515 30 8 C31.32 8.33 32.64 8.66 34 9 C33.5152439 15.54420732 33.5152439 15.54420732 31.375 17.4375 C28.20862399 18.18743116 25.24002269 18.12461626 22 18 C22 19.65 22 21.3 22 23 C23.98 23.33 25.96 23.66 28 24 C28 24.33 28 24.66 28 25 C25.125 25.125 25.125 25.125 22 25 C21.34 24.34 20.68 23.68 20 23 C20.375 19.375 20.375 19.375 21 16 C15.21265699 14.11057938 9.61413938 13.40653348 3.5625 12.875 C2.64017578 12.78863281 1.71785156 12.70226563 0.76757812 12.61328125 C-1.48780541 12.4029346 -3.74356186 12.19865598 -6 12 C-6 11.01 -6 10.02 -6 9 C-5.34 9 -4.68 9 -4 9 C-4 9.66 -4 10.32 -4 11 C-2.35 10.67 -0.7 10.34 1 10 C1 9.34 1 8.68 1 8 C0.34 7.67 -0.32 7.34 -1 7 C0.65 7 2.3 7 4 7 C4 5.35 4 3.7 4 2 C2.68 1.34 1.36 0.68 0 0 Z " fill="#D2B6B8" transform="translate(156,33)"/>
<path d="M0 0 C37.29 0 74.58 0 113 0 C113 0.66 113 1.32 113 2 C99.74331247 2.17738466 86.48653509 2.34331001 73.22952461 2.49477577 C67.07317731 2.56547058 60.91692907 2.64004985 54.76074219 2.72363281 C48.81508503 2.80421237 42.86938606 2.87442311 36.92351913 2.93757248 C34.65979406 2.96341272 32.39610778 2.99293233 30.13248062 3.02626419 C26.95179045 3.07245922 23.77121145 3.10533978 20.59033203 3.13525391 C19.66315872 3.1517952 18.73598541 3.16833649 17.78071594 3.18537903 C11.63074631 3.22495005 5.98019058 2.42569457 0 1 C0 0.67 0 0.34 0 0 Z " fill="#E0C6C6" transform="translate(219,40)"/>
<path d="M0 0 C1 2 1 2 1 5 C1.78503906 5.29132812 2.57007813 5.58265625 3.37890625 5.8828125 C9.96279423 8.45174057 15.08660166 10.86326538 20 16 C20 16.99 20 17.98 20 19 C18.35 19.66 16.7 20.32 15 21 C15 20.34 15 19.68 15 19 C9.52484036 19.2234759 6.41846576 20.48133268 2.390625 24.24609375 C0.14008812 27.08455178 -0.13396791 29.44985042 0 33 C1.29264699 34.96431405 1.29264699 34.96431405 3 36 C1.68 36 0.36 36 -1 36 C-3.01630536 32.97554196 -3.52898086 31.61212081 -2.95703125 28.05078125 C-0.76024863 23.34338991 4.02124918 20.18444485 8 17 C7.44570312 16.61328125 6.89140625 16.2265625 6.3203125 15.828125 C5.23363281 15.04695313 5.23363281 15.04695313 4.125 14.25 C3.40570313 13.73953125 2.68640625 13.2290625 1.9453125 12.703125 C-0.90034087 10.21174976 -1.89372345 8.11590377 -2.25 4.375 C-2 2 -2 2 0 0 Z " fill="#D4B5B8" transform="translate(190,28)"/>
<path d="M0 0 C0.33 0 0.66 0 1 0 C1.20625 1.093125 1.4125 2.18625 1.625 3.3125 C2.65663938 7.2285659 2.65663938 7.2285659 6.125 8.9375 C7.548125 9.4634375 7.548125 9.4634375 9 10 C8.67 9.01 8.34 8.02 8 7 C9.32 7.33 10.64 7.66 12 8 C11.67 10.31 11.34 12.62 11 15 C10.34 14.67 9.68 14.34 9 14 C9.33 13.34 9.66 12.68 10 12 C9.01 12.33 8.02 12.66 7 13 C6.67 13.99 6.34 14.98 6 16 C5.35933594 15.80664062 4.71867188 15.61328125 4.05859375 15.4140625 C-0.95110985 13.9059252 -5.96539857 12.42282214 -11 11 C-11 10.67 -11 10.34 -11 10 C-4.565 9.505 -4.565 9.505 2 9 C1.01 8.01 0.02 7.02 -1 6 C-1.25 3.375 -1.25 3.375 -1 1 C-0.67 0.67 -0.34 0.34 0 0 Z " fill="#EBDCDE" transform="translate(178,34)"/>
<path d="M0 0 C2.16874252 0.50603992 3.99967627 0.99983813 6 2 C5.8667141 8.26443733 3.56173493 11.30520648 -0.50390625 15.984375 C-2.2980044 17.98312439 -2.2980044 17.98312439 -2 21 C-5.33333333 19.66666667 -8.66666667 18.33333333 -12 17 C-10.75023244 13.34683329 -10.32901247 12.21934164 -7 10 C-4.3125 9.875 -4.3125 9.875 -2 10 C-3.98 12.97 -3.98 12.97 -6 16 C-0.71968511 12.7843624 -0.71968511 12.7843624 3 8 C3.50014953 5.45741537 3.50014953 5.45741537 3 3 C1.60414215 1.18523997 1.60414215 1.18523997 0 0 Z " fill="#E6D7D7" transform="translate(145,27)"/>
<path d="M0 0 C0.66 0.33 1.32 0.66 2 1 C1.67 1.99 1.34 2.98 1 4 C0.13375 4.185625 0.13375 4.185625 -0.75 4.375 C-4.06600927 5.29611369 -5.66400237 7.54420762 -8 10 C-8.99 10.66 -9.98 11.32 -11 12 C-14.465 10.02 -14.465 10.02 -18 8 C-14.98635397 5.99090265 -13.59510477 5.64182412 -10.125 5.125 C-5.78411855 4.33805658 -3.18805516 3.18805516 0 0 Z " fill="#EBD6D9" transform="translate(127,35)"/>
<path d="M0 0 C6.41975904 1.65952955 11.57608068 3.89328927 16 9 C16 9.66 16 10.32 16 11 C9.69432451 10.83831601 5.38178379 7.22496205 1 3 C0.67 2.01 0.34 1.02 0 0 Z " fill="#F7F0F2" transform="translate(191,35)"/>
<path d="M0 0 C5.08330114 0.47655948 9.04714532 2.91129753 13 6 C15 8.8125 15 8.8125 16 11 C9.58024096 9.34047045 4.42391932 7.10671073 0 2 C0 1.34 0 0.68 0 0 Z " fill="#F8F1F3" transform="translate(131,45)"/>
<path d="M0 0 C1.65 0.33 3.3 0.66 5 1 C5.51198251 3.55991256 6.01797607 6.11042442 6.4375 8.6875 C6.83093987 11.17757117 6.83093987 11.17757117 9 13 C3.87416389 13.10251672 -0.94997778 13.03590199 -6 12 C-6 11.01 -6 10.02 -6 9 C-5.34 9 -4.68 9 -4 9 C-4 9.66 -4 10.32 -4 11 C-2.35 10.67 -0.7 10.34 1 10 C1 9.34 1 8.68 1 8 C0.34 7.67 -0.32 7.34 -1 7 C0.65 7 2.3 7 4 7 C4 5.35 4 3.7 4 2 C2.68 1.34 1.36 0.68 0 0 Z " fill="#E1CED1" transform="translate(156,33)"/>
<path d="M0 0 C1.84765625 0.33984375 1.84765625 0.33984375 4.0625 0.9375 C5.16271484 1.22947266 5.16271484 1.22947266 6.28515625 1.52734375 C7.13400391 1.76130859 7.13400391 1.76130859 8 2 C7.01 2.33 6.02 2.66 5 3 C5 3.99 5 4.98 5 6 C2.69 6.33 0.38 6.66 -2 7 C-1.125 1.125 -1.125 1.125 0 0 Z " fill="#F3EBEA" transform="translate(176,56)"/>
<path d="M0 0 C3.36179774 1.44077046 5.59156268 3.24750021 8 6 C8 6.66 8 7.32 8 8 C8.99 8.33 9.98 8.66 11 9 C10.01 9 9.02 9 8 9 C7.87625 9.639375 7.7525 10.27875 7.625 10.9375 C7.41875 11.618125 7.2125 12.29875 7 13 C6.01 13.495 6.01 13.495 5 14 C5.33 12.02 5.66 10.04 6 8 C5.01 7.67 4.02 7.34 3 7 C3 6.01 3 5.02 3 4 C1.56009377 1.82967524 1.56009377 1.82967524 0 0 Z " fill="#CEADB0" transform="translate(142,49)"/>
<path d="M0 0 C0.33 0 0.66 0 1 0 C1.20625 1.093125 1.4125 2.18625 1.625 3.3125 C2.65663938 7.2285659 2.65663938 7.2285659 6.125 8.9375 C7.548125 9.4634375 7.548125 9.4634375 9 10 C8.67 9.01 8.34 8.02 8 7 C8.99 7 9.98 7 11 7 C10.67 8.32 10.34 9.64 10 11 C6.19207747 11.55998861 4.9799822 10.9867807 1.6875 8.8125 C-1 6 -1 6 -1.4375 3.25 C-1 1 -1 1 0 0 Z " fill="#D1B3B5" transform="translate(178,34)"/>
<path d="M0 0 C0.66 0.33 1.32 0.66 2 1 C1.67 1.99 1.34 2.98 1 4 C0.13375 4.185625 0.13375 4.185625 -0.75 4.375 C-4.06600927 5.29611369 -5.66400237 7.54420762 -8 10 C-8.99 10.66 -9.98 11.32 -11 12 C-11 11.01 -11 10.02 -11 9 C-9.35443434 7.96564444 -7.6829392 6.97236487 -6 6 C-4.29503463 4.37253306 -2.62102968 2.71108689 -1 1 C-0.67 0.67 -0.34 0.34 0 0 Z " fill="#F0E3E7" transform="translate(127,35)"/>
<path d="M0 0 C1.65 0.33 3.3 0.66 5 1 C5.70074844 4.153368 6 6.72724974 6 10 C4.35 10 2.7 10 1 10 C1 9.34 1 8.68 1 8 C0.34 7.67 -0.32 7.34 -1 7 C0.65 7 2.3 7 4 7 C4 5.35 4 3.7 4 2 C2.68 1.34 1.36 0.68 0 0 Z " fill="#D4BABA" transform="translate(156,33)"/>
<path d="M0 0 C0 3 0 3 -1.5625 4.625 C-4.67270734 6.37947593 -7.47344754 6.66090842 -11 7 C-7.71368707 3.54937143 -4.7993848 0.857033 0 0 Z " fill="#EAE2E2" transform="translate(207,48)"/>
<path d="M0 0 C4.95 0.33 9.9 0.66 15 1 C12.70255875 3.29744125 11.13759973 4.17824769 8 5 C5.9375 3.75 5.9375 3.75 4 2 C2.68 1.34 1.36 0.68 0 0 Z " fill="#F1E6E8" transform="translate(151,45)"/>
<path d="M0 0 C1.98 0 3.96 0 6 0 C4.125 3.875 4.125 3.875 3 5 C1.00041636 5.04080783 -1.00045254 5.04254356 -3 5 C-3.33 4.01 -3.66 3.02 -4 2 C-1.03 2.495 -1.03 2.495 2 3 C2.33 2.34 2.66 1.68 3 1 C2.01 0.67 1.02 0.34 0 0 Z " fill="#DAC4C7" transform="translate(182,46)"/>
<path d="M0 0 C1 2 1 2 1 5 C1.99 5.66 2.98 6.32 4 7 C3.01 7 2.02 7 1 7 C0.67 7.99 0.34 8.98 0 10 C-2.14915785 6.77626323 -2.38286803 5.73296326 -2 2 C-1.34 1.34 -0.68 0.68 0 0 Z " fill="#CDACB0" transform="translate(190,28)"/>
<path d="M0 0 C1.98 0.99 3.96 1.98 6 3 C6 3.33 6 3.66 6 4 C2.7 4 -0.6 4 -4 4 C-2.68 2.68 -1.36 1.36 0 0 Z " fill="#F2E5E7" transform="translate(223,45)"/>
<path d="M0 0 C6.625 -0.125 6.625 -0.125 10 1 C9.67 1.99 9.34 2.98 9 4 C6.03 3.01 3.06 2.02 0 1 C0 0.67 0 0.34 0 0 Z " fill="#EFE5E7" transform="translate(175,46)"/>
<path d="M0 0 C0.66 0.33 1.32 0.66 2 1 C-0.33343353 4.50015029 -2.16917814 5.40382422 -6 7 C-6.66 6.67 -7.32 6.34 -8 6 C-5.36 4.02 -2.72 2.04 0 0 Z " fill="#E2D6D5" transform="translate(214,51)"/>
<path d="M0 0 C2.64 0 5.28 0 8 0 C7.67 1.32 7.34 2.64 7 4 C4.97954558 3.39816251 2.97888961 2.72693904 1 2 C0.67 1.34 0.34 0.68 0 0 Z " fill="#ECE0E3" transform="translate(180,40)"/>
<path d="M0 0 C0.66 0.33 1.32 0.66 2 1 C0.625 3 0.625 3 -1 5 C-1.66 5 -2.32 5 -3 5 C-3 5.66 -3 6.32 -3 7 C-3.66 7 -4.32 7 -5 7 C-3.75023244 3.34683329 -3.32901247 2.21934164 0 0 Z " fill="#E9DFE0" transform="translate(138,37)"/>
<path d="M0 0 C0.33 0.66 0.66 1.32 1 2 C3.52733235 2.65555119 3.52733235 2.65555119 6 3 C6 3.33 6 3.66 6 4 C3.03 4 0.06 4 -3 4 C-2.67 3.34 -2.34 2.68 -2 2 C-1.34 2 -0.68 2 0 2 C0 1.34 0 0.68 0 0 Z " fill="#F6EAEB" transform="translate(110,45)"/>
<path d="M0 0 C1.67542976 0.28604898 3.34385343 0.61781233 5 1 C5 1.66 5 2.32 5 3 C3.35 3.33 1.7 3.66 0 4 C-0.33 3.01 -0.66 2.02 -1 1 C-0.67 0.67 -0.34 0.34 0 0 Z " fill="#F0E7EA" transform="translate(152,40)"/>
</svg>
