<?xml version="1.0" standalone="no"?>
<!DOCTYPE svg PUBLIC "-//W3C//DTD SVG 20010904//EN"
 "http://www.w3.org/TR/2001/REC-SVG-20010904/DTD/svg10.dtd">
<svg version="1.0" xmlns="http://www.w3.org/2000/svg"
 width="107.000000pt" height="100.000000pt" viewBox="0 0 107.000000 100.000000"
 preserveAspectRatio="xMidYMid meet">

<g transform="translate(0.000000,100.000000) scale(0.100000,-0.100000)"
fill="#000000" stroke="none">
<path d="M888 860 l4 -49 -104 -4 -103 -3 102 -2 102 -2 4 -77 3 -78 2 78 2
77 40 0 c22 0 40 3 40 8 0 4 -18 6 -40 4 l-40 -4 0 51 c0 28 -3 51 -7 51 -5 0
-6 -22 -5 -50z"/>
<path d="M410 884 c0 -9 27 -30 63 -49 40 -23 33 -13 -18 24 -25 18 -45 29
-45 25z"/>
<path d="M294 870 c-5 -5 -32 -21 -59 -35 -28 -14 -39 -23 -25 -19 14 3 44 17
67 30 l42 25 41 -30 c23 -16 47 -32 53 -35 8 -3 3 -12 -13 -23 -61 -44 -74
-63 -22 -31 29 17 55 35 58 39 5 8 -105 89 -121 89 -6 0 -15 -4 -21 -10z"/>
<path d="M521 861 c13 -10 35 -24 48 -30 l23 -13 -28 -31 -29 -31 32 25 c18
13 32 27 32 31 1 8 -80 68 -92 68 -5 0 1 -8 14 -19z"/>
<path d="M465 773 c-27 -25 -36 -36 -20 -24 53 37 80 60 75 64 -3 3 -27 -15
-55 -40z"/>
<path d="M150 802 c0 -4 30 -22 66 -40 36 -18 63 -29 60 -24 -2 4 -27 19 -55
32 -28 12 -48 27 -45 32 3 4 -2 8 -10 8 -9 0 -16 -4 -16 -8z"/>
<path d="M850 504 c-18 -25 -30 -48 -27 -50 2 -3 17 16 31 41 15 25 31 45 36
45 4 0 18 -12 30 -27 12 -16 18 -21 14 -13 -10 22 -36 50 -45 50 -4 0 -22 -21
-39 -46z"/>
<path d="M915 440 c21 -22 41 -40 43 -40 1 0 -12 18 -29 40 -18 22 -37 40 -43
40 -5 0 8 -18 29 -40z"/>
<path d="M841 411 c-24 -33 -28 -56 -5 -26 20 26 36 55 30 55 -3 0 -14 -13
-25 -29z"/>
<path d="M862 348 c-36 -54 -39 -64 -27 -78 8 -8 23 -36 34 -60 11 -25 21 -39
21 -32 0 7 -11 35 -25 63 l-26 50 32 49 c18 28 33 50 35 50 1 0 14 -20 28 -44
15 -25 32 -48 39 -53 6 -4 4 6 -7 22 -10 15 -27 43 -38 62 -11 18 -21 33 -22
33 -1 0 -21 -28 -44 -62z"/>
<path d="M939 218 c-17 -35 -36 -66 -43 -70 -6 -4 -7 -10 -3 -14 4 -4 9 -5 11
-3 9 10 76 149 71 149 -2 0 -19 -28 -36 -62z"/>
</g>
</svg>
