<?xml version="1.0" standalone="no"?>
<!DOCTYPE svg PUBLIC "-//W3C//DTD SVG 20010904//EN"
 "http://www.w3.org/TR/2001/REC-SVG-20010904/DTD/svg10.dtd">
<svg version="1.0" xmlns="http://www.w3.org/2000/svg"
 width="1225.000000pt" height="980.000000pt" viewBox="0 0 1225.000000 980.000000"
 preserveAspectRatio="xMidYMid meet">

<g transform="translate(0.000000,980.000000) scale(0.100000,-0.100000)"
fill="#000000" stroke="none">
<path d="M5750 7454 c-310 -37 -538 -137 -731 -321 -45 -43 -101 -103 -124
-134 -91 -117 -158 -273 -186 -429 -16 -93 -16 -309 0 -415 30 -192 114 -474
210 -699 l49 -117 -21 -13 c-12 -8 -71 -42 -132 -76 -124 -71 -292 -179 -409
-263 l-79 -57 -1416 0 c-779 0 -1421 -4 -1427 -8 -19 -13 -23 -39 -8 -61 l15
-21 4634 0 4634 0 15 22 c20 28 20 33 0 52 -14 14 -201 16 -1915 16 -1044 0
-1899 3 -1899 6 0 19 158 259 218 330 75 90 172 136 316 152 l61 7 3 48 3 47
-111 0 -110 0 -11 27 c-15 41 -12 184 6 254 35 132 116 262 202 318 52 35 78
38 112 15 62 -44 67 -161 21 -475 -26 -178 -31 -236 -28 -344 3 -99 8 -138 22
-163 24 -46 55 -58 106 -43 72 21 86 49 240 466 100 269 204 486 223 465 2 -3
-6 -68 -19 -145 -13 -77 -24 -180 -24 -228 0 -136 26 -177 104 -163 58 11 82
50 150 242 84 234 125 322 184 387 76 82 75 -29 -2 -340 -60 -240 -69 -292
-70 -423 -1 -110 2 -131 22 -175 41 -88 82 -117 171 -117 100 0 173 44 248
150 96 134 161 333 170 520 5 94 8 112 22 112 9 0 51 11 94 24 l77 24 0 -22
c0 -12 -9 -56 -20 -97 -69 -253 -91 -360 -97 -459 -5 -93 -3 -111 15 -153 31
-70 81 -84 159 -46 77 37 163 170 305 468 42 91 79 169 82 175 4 12 155 -143
156 -160 0 -6 -18 -23 -39 -37 -64 -42 -129 -117 -164 -187 -40 -81 -45 -181
-11 -226 54 -73 191 -93 290 -42 153 80 199 301 93 449 -31 44 -25 49 54 49
101 0 161 -22 219 -82 45 -46 78 -56 78 -22 0 24 -62 84 -114 112 -47 25 -60
27 -180 28 l-130 0 -74 80 c-91 98 -112 136 -112 208 0 47 4 60 31 90 115 131
238 -48 140 -205 -36 -58 -36 -59 -16 -59 24 0 65 48 93 109 41 88 20 178 -51
221 -59 36 -167 23 -235 -28 -60 -44 -74 -77 -68 -161 l5 -74 -121 -241 c-164
-330 -255 -463 -291 -427 -6 6 -13 44 -15 84 -4 86 19 206 83 432 25 87 45
178 45 201 0 87 -53 97 -214 43 -48 -17 -89 -29 -91 -27 -1 2 -12 33 -24 69
-24 74 -43 96 -87 105 -36 7 -79 -23 -87 -62 -6 -34 10 -104 30 -126 9 -10 34
-24 56 -30 l40 -12 -6 -106 c-12 -200 -95 -423 -202 -539 -69 -74 -114 -93
-154 -64 -39 30 -59 70 -71 147 -17 107 1 239 76 561 48 202 53 316 15 346
-28 23 -87 25 -134 5 -79 -33 -162 -168 -257 -421 -29 -77 -57 -144 -61 -149
-14 -15 -10 86 7 209 27 200 29 241 10 270 -12 18 -25 25 -49 25 -109 0 -197
-148 -387 -650 -34 -91 -76 -194 -92 -230 -28 -62 -30 -64 -40 -40 -15 38 -2
315 22 480 12 80 23 192 23 250 1 93 -1 111 -23 155 -35 69 -65 88 -138 88
-111 -1 -203 -67 -285 -205 -71 -120 -99 -276 -74 -415 l7 -43 -402 -2 -403
-3 -3 -43 c-2 -28 1 -43 10 -46 114 -33 173 -78 209 -159 19 -42 23 -70 23
-142 0 -49 -6 -114 -13 -142 l-13 -53 -364 0 -364 0 -34 53 c-56 89 -246 424
-246 434 0 6 60 43 133 84 628 346 878 594 952 945 8 38 15 123 15 190 0 261
-83 447 -275 612 -101 88 -246 156 -400 188 -70 15 -289 26 -355 18z m279
-273 c167 -52 295 -199 337 -388 13 -58 15 -103 11 -192 -6 -139 -23 -206 -82
-328 -87 -180 -229 -332 -435 -468 -97 -64 -279 -165 -297 -165 -11 0 -18 15
-113 265 -104 273 -162 483 -176 632 -7 79 14 206 49 288 72 173 225 318 378
359 81 22 253 20 328 -3z m3035 -1213 c8 -32 7 -40 -3 -34 -11 7 -21 56 -11
56 4 0 10 -10 14 -22z m976 -471 c32 -72 32 -176 1 -240 -31 -65 -92 -117
-135 -117 -43 0 -91 45 -100 93 -16 85 46 214 139 294 57 48 62 47 95 -30z
m-4910 -477 c22 -44 40 -82 40 -85 0 -3 -77 -5 -171 -5 -116 0 -168 3 -164 10
10 16 228 160 242 160 7 0 31 -36 53 -80z"/>
<path d="M2937 6199 c-79 -42 -163 -191 -268 -477 -27 -73 -35 -88 -41 -72 -8
21 4 161 22 275 26 161 7 224 -65 212 -99 -16 -187 -161 -339 -564 -91 -241
-146 -373 -157 -373 -13 0 -22 130 -15 234 4 56 17 166 29 246 12 83 21 196
22 265 0 105 -3 125 -22 162 -36 66 -65 83 -142 83 -82 0 -145 -33 -215 -111
-52 -58 -117 -185 -137 -269 -28 -116 -3 -305 43 -334 29 -18 41 5 22 43 -24
48 -29 181 -10 270 30 143 134 304 227 352 62 31 91 22 122 -38 32 -61 31
-152 -3 -383 -39 -269 -47 -392 -30 -489 16 -96 42 -126 102 -118 78 10 117
74 221 362 104 286 115 314 173 430 56 114 80 152 89 143 3 -3 -6 -74 -20
-159 -37 -225 -31 -344 17 -370 31 -17 97 -4 125 23 15 15 47 90 87 204 79
223 104 279 157 354 102 146 114 56 35 -265 -62 -250 -77 -338 -78 -453 -1
-208 58 -296 198 -295 48 0 73 7 114 29 161 88 300 392 300 659 0 60 4 87 13
89 6 2 49 15 95 29 l82 25 0 -32 c0 -17 -20 -105 -45 -195 -112 -409 -93 -588
58 -568 102 14 192 143 381 548 47 102 86 188 86 192 0 4 -12 7 -27 7 -26 0
-35 -15 -155 -253 -164 -328 -251 -460 -292 -444 -24 9 -29 101 -12 212 8 55
38 180 66 278 57 200 66 271 36 293 -31 22 -100 17 -193 -16 -46 -16 -88 -30
-91 -30 -4 0 -15 27 -24 59 -24 81 -55 115 -103 115 -48 0 -75 -31 -75 -85 0
-77 48 -139 106 -139 15 0 16 -12 12 -107 -12 -251 -136 -529 -270 -602 -44
-24 -49 -25 -75 -11 -49 27 -75 91 -81 194 -6 118 8 217 64 456 28 119 48 231
51 287 5 88 5 92 -20 117 -33 32 -94 34 -150 5z m467 -249 c7 -24 6 -24 -8 -6
-9 11 -16 29 -16 40 1 17 2 18 9 6 5 -8 12 -26 15 -40z"/>
<path d="M4070 5290 c-11 -11 -20 -29 -20 -40 0 -24 42 -70 63 -70 26 0 67 41
67 66 0 31 -33 64 -65 64 -14 0 -34 -9 -45 -20z"/>
<path d="M10356 5291 c-47 -51 14 -133 73 -100 54 30 32 119 -29 119 -15 0
-35 -9 -44 -19z"/>
<path d="M1475 3446 c-13 -19 -14 -29 -5 -45 11 -21 11 -21 1067 -23 l1056 -3
22 -70 c110 -357 447 -632 865 -705 112 -20 286 -28 417 -19 421 30 853 228
1287 591 l70 58 120 -118 c297 -291 572 -456 863 -517 109 -24 320 -22 438 3
347 74 591 301 735 682 l36 95 1163 5 1164 5 8 23 c6 17 4 27 -11 42 -20 20
-52 20 -4650 20 l-4630 0 -15 -24z m4529 -77 c-11 -18 -183 -142 -269 -194
-109 -66 -247 -130 -352 -162 -80 -24 -103 -27 -253 -27 -143 -1 -176 2 -244
22 -104 30 -216 89 -294 155 -65 57 -172 182 -172 204 0 10 157 13 796 13 569
0 793 -3 788 -11z m2246 0 c0 -22 -71 -107 -123 -147 -117 -91 -246 -127 -427
-119 -176 7 -323 61 -507 184 -152 102 -201 93 470 93 425 0 587 -3 587 -11z"/>
<path d="M2808 3256 c-10 -24 -16 -26 -80 -26 -61 0 -69 -2 -66 -17 2 -14 15
-19 57 -21 52 -3 53 -4 47 -30 -4 -15 -13 -61 -21 -102 -8 -41 -14 -76 -15
-76 0 -1 -17 -4 -38 -8 -21 -3 -64 -19 -96 -34 l-57 -29 -14 21 c-8 11 -15 40
-15 63 0 52 47 113 87 113 24 0 25 -2 20 -46 -4 -42 -3 -45 17 -42 11 2 27 16
35 32 12 25 11 31 -6 55 -11 14 -39 32 -63 40 -38 12 -47 12 -89 -5 -65 -28
-94 -73 -89 -141 4 -47 0 -62 -41 -139 -25 -48 -58 -96 -73 -107 -26 -20 -28
-20 -47 -3 -26 23 -46 113 -30 132 6 8 17 14 24 14 22 0 77 52 91 87 20 47 18
106 -4 126 -53 48 -127 19 -171 -66 -77 -150 9 -364 133 -333 37 9 82 60 116
131 17 36 34 65 38 65 4 0 12 -8 19 -19 9 -15 7 -24 -13 -52 -13 -19 -26 -48
-30 -66 -5 -27 -1 -37 25 -64 27 -27 37 -31 67 -26 44 7 63 23 81 65 12 30 11
37 -9 80 -12 26 -23 50 -25 53 -5 9 111 59 136 59 18 0 21 -6 21 -47 0 -60 37
-142 75 -167 39 -25 89 -15 132 26 37 35 113 181 113 216 0 48 -22 27 -65 -62
-45 -93 -106 -171 -128 -163 -6 2 -18 23 -25 48 -16 51 -10 236 9 332 l12 57
79 0 c70 0 79 2 76 18 -2 13 -19 19 -71 26 -61 8 -68 11 -65 30 2 16 -3 22
-24 24 -22 3 -30 -2 -40 -22z m-517 -256 c-6 -20 -22 -47 -36 -60 -24 -23 -25
-23 -25 -3 0 28 27 102 48 133 l17 25 3 -30 c2 -16 -1 -46 -7 -65z m245 -224
c-7 -33 -34 -68 -47 -60 -15 9 -10 64 8 95 17 28 19 29 31 12 8 -11 11 -30 8
-47z"/>
<path d="M9952 3225 c-56 -47 -80 -118 -48 -144 12 -10 16 -5 27 26 6 21 19
48 27 61 18 28 69 55 88 48 18 -7 18 -66 0 -109 -14 -35 -92 -111 -131 -129
-39 -18 -27 -35 40 -55 70 -20 19 -133 -60 -133 -40 0 -53 -15 -26 -29 52 -28
136 1 166 58 19 39 11 74 -24 104 l-27 22 57 55 c85 81 100 153 46 215 -14 17
-36 28 -63 32 -33 4 -45 1 -72 -22z"/>
<path d="M8921 3204 c-63 -56 -95 -169 -48 -169 13 0 25 17 42 58 28 71 36 81
82 102 36 17 37 17 56 -6 60 -74 -56 -290 -200 -371 -50 -28 -65 -49 -44 -63
13 -8 229 -11 236 -3 10 10 -29 27 -69 30 -20 1 -36 4 -36 5 0 2 26 29 59 61
137 134 170 310 69 372 -52 32 -101 27 -147 -16z"/>
<path d="M9295 3231 c-37 -16 -85 -74 -107 -130 -16 -43 -22 -78 -22 -151 -1
-116 19 -164 79 -194 35 -17 42 -18 79 -5 51 18 90 72 111 154 17 69 20 173 4
228 -20 74 -90 121 -144 98z m73 -46 c66 -83 44 -303 -37 -384 -31 -31 -47
-26 -72 25 -43 90 -23 282 37 353 31 38 46 39 72 6z"/>
<path d="M9630 3218 c-40 -27 -89 -110 -90 -150 0 -17 7 -31 19 -37 16 -9 21
-4 40 48 22 60 60 107 98 122 34 13 52 1 59 -37 20 -107 -78 -266 -214 -347
-81 -49 -69 -61 68 -68 63 -3 119 -1 125 3 16 14 -15 28 -62 28 -24 0 -43 2
-43 5 0 3 28 33 63 68 160 157 168 367 15 384 -34 4 -50 0 -78 -19z"/>
<path d="M6105 2841 c-63 -26 -77 -96 -31 -155 25 -33 166 -141 185 -141 13 0
122 136 137 172 19 44 10 87 -23 113 -41 32 -88 24 -140 -23 -20 -18 -23 -18
-29 -3 -6 16 -54 47 -71 45 -4 0 -17 -4 -28 -8z"/>
<path d="M3082 2798 c-30 -30 -3 -82 40 -76 29 4 47 50 28 72 -15 19 -51 21
-68 4z"/>
</g>
</svg>
